# xmcd CD Database Entry
#
# Track frame offsets:
# 183
# 13325
# 28163
# 40403
# 53800
# 69413
# 80648
# 91493
# 104088
# 115683
#
# Disc length: 1682 seconds
#
# Revision: 1
# Processed by: cddbd v1.4PL0 Copyright (c) Steve Scherf et al.
# Submitted via: tcd 2.0b
#
DISCID=8806900a
DTITLE=Elmore James - Golden Hits
DYEAR=1900
DGENRE=
TTITLE0=Dust My Broom
TTITLE1=It Hurts Me Too
TTITLE2=Mean Mistreatin'
TTITLE3=Standing At The Crossroads
TTITLE4=I Believe
TTITLE5=Look On Yonder Wall
TTITLE6=Coming Home
TTITLE7=The Sky Is Crying
TTITLE8=Rollin' And Tumblin'
TTITLE9=I Done Somebody Wrong
EXTD=
EXTT0=
EXTT1=
EXTT2=
EXTT3=
EXTT4=
EXTT5=
EXTT6=
EXTT7=
EXTT8=
EXTT9=
PLAYORDER=
